<svg xmlns="http://www.w3.org/2000/svg" viewBox="0 0 200 200">
    <defs>
        <linearGradient id="bgGradient" x1="0%" x2="100%" y1="0%" y2="100%">
            <stop offset="0%" style="stop-color:#1a1a2e;stop-opacity:1" />
            <stop offset="100%" style="stop-color:#16213e;stop-opacity:1" />
        </linearGradient>
        <linearGradient id="wandGradient" x1="0%" x2="100%" y1="0%" y2="100%">
            <stop offset="0%" style="stop-color:#d4af37;stop-opacity:1" />
            <stop offset="100%" style="stop-color:#f4e5b8;stop-opacity:1" />
        </linearGradient>
        <linearGradient id="bookGradient" x1="0%" x2="0%" y1="0%" y2="100%">
            <stop offset="0%" style="stop-color:#8b4513;stop-opacity:1" />
            <stop offset="100%" style="stop-color:#654321;stop-opacity:1" />
        </linearGradient>
        <filter id="glow">
            <feGaussianBlur result="coloredBlur" stdDeviation="2" />
            <feMerge>
                <feMergeNode in="coloredBlur" />
                <feMergeNode in="SourceGraphic" />
            </feMerge>
        </filter>
    </defs>
    <circle cx="100" cy="100" r="95" fill="url(#bgGradient)" />
    <path fill="url(#bookGradient)" stroke="#654321" stroke-width="1.5"
        d="M-45-20q0-5 5-5h35v55q-40-5-40-10Z" transform="translate(100 100)" />
    <path fill="url(#bookGradient)" stroke="#654321" stroke-width="1.5"
        d="M5-25h35q5 0 5 5v40q0 5-40 10Z" transform="translate(100 100)" />
    <path stroke="#d4af37" d="M65 85h25" opacity=".7" />
    <path stroke="#d4af37" d="M65 92h25m-25 7h20" opacity=".5" />
    <path stroke="#d4af37" d="M110 85h25" opacity=".7" />
    <path stroke="#d4af37" d="M110 92h25m-25 7h20" opacity=".5" />
    <g filter="url(#glow)" transform="translate(100 100)">
        <path stroke="url(#wandGradient)" stroke-linecap="round" stroke-width="4"
            d="m-50 40 80-80" />
        <circle cx="30" cy="-40" r="3" fill="gold" />
        <path stroke="#8b7355" stroke-width="1.5" d="m-40 30 5-5m5-5 5-5" />
    </g>
    <g opacity=".8" transform="translate(100 100)">
        <path fill="gold" d="m35-45 2 2 2-2-2-2Z" />
        <path fill="#ffed4e" d="m37-47 2 2-2 2-2-2Z" />
        <path fill="gold" d="m40-35 1.5 1.5L43-35l-1.5-1.5Z" />
        <path fill="#ffed4e" d="M41.5-36.5 43-35l-1.5 1.5L40-35Z" />
        <path fill="gold" d="m25-48 1.5 1.5L28-48l-1.5-1.5Z" />
        <path fill="#ffed4e" d="M26.5-49.5 28-48l-1.5 1.5L25-48Z" />
        <circle cx="32" cy="-50" r="1" fill="gold" />
        <circle cx="42" cy="-42" r="1.5" fill="#ffed4e" />
        <circle cx="38" cy="-52" r=".8" fill="gold" />
    </g>
    <text y="15" fill="#d4af37" font-family="Georgia, serif" font-size="32" font-weight="bold"
        opacity=".3" text-anchor="middle" transform="translate(100 100)">W
    </text>
    <circle cx="100" cy="100" r="95" fill="none" stroke="#d4af37" stroke-width="2" opacity=".5" />
</svg>